<svg xmlns="http://www.w3.org/2000/svg" viewBox="0 0 390 844" fill="none">
  <rect width="390" height="844" fill="#0a0f0d"/>
  <rect x="24" y="48" width="342" height="760" rx="36" fill="#111827" stroke="#1f2937" stroke-width="2"/>
  <rect x="44" y="88" width="298" height="28" rx="14" fill="#10b981"/>
  <rect x="44" y="132" width="180" height="12" rx="6" fill="#374151"/>
  <text x="44" y="178" fill="#6ee7b7" font-family="system-ui,sans-serif" font-size="11" font-weight="600">FAMILY DASHBOARD</text>
  <rect x="44" y="196" width="298" height="72" rx="16" fill="#064e3b" stroke="#10b981" stroke-width="1"/>
  <circle cx="72" cy="232" r="18" fill="#10b981"/>
  <rect x="98" y="218" width="120" height="10" rx="5" fill="#d1fae5"/>
  <rect x="98" y="236" width="80" height="8" rx="4" fill="#6ee7b7" opacity="0.6"/>
  <rect x="44" y="288" width="298" height="56" rx="14" fill="#1f2937"/>
  <rect x="60" y="304" width="100" height="8" rx="4" fill="#9ca3af"/>
  <rect x="280" y="300" width="48" height="24" rx="12" fill="#059669"/>
  <rect x="44" y="364" width="298" height="56" rx="14" fill="#1f2937"/>
  <rect x="60" y="380" width="120" height="8" rx="4" fill="#9ca3af"/>
  <rect x="260" y="376" width="68" height="24" rx="12" fill="#374151"/>
  <rect x="44" y="412" width="298" height="56" rx="14" fill="#1f2937"/>
  <rect x="60" y="428" width="90" height="8" rx="4" fill="#9ca3af"/>
  <rect x="248" y="424" width="80" height="24" rx="12" fill="#374151"/>
  <rect x="44" y="500" width="298" height="120" rx="16" fill="#052e16" stroke="#10b981" stroke-width="1" stroke-dasharray="4 4"/>
  <text x="58" y="528" fill="#a7f3d0" font-family="system-ui,sans-serif" font-size="10" font-weight="600">Evening schedule</text>
  <rect x="58" y="544" width="200" height="8" rx="4" fill="#10b981" opacity="0.5"/>
  <rect x="58" y="564" width="160" height="8" rx="4" fill="#10b981" opacity="0.35"/>
  <rect x="58" y="584" width="120" height="8" rx="4" fill="#10b981" opacity="0.25"/>
  <circle cx="195" cy="720" r="36" fill="#10b981" opacity="0.15"/>
  <path d="M195 700v24M183 712h24" stroke="#34d399" stroke-width="3" stroke-linecap="round"/>
</svg>
